<svg width="13" height="17" viewBox="0 0 13 17" fill="none" xmlns="http://www.w3.org/2000/svg">
<path d="M6.49992 0.583496C3.43617 0.583496 0.958252 3.06141 0.958252 6.12516C0.958252 7.50266 1.35409 8.79308 2.0745 9.95683C2.82659 11.176 3.81617 12.221 4.57617 13.4402C4.94825 14.0339 5.21742 14.5881 5.50242 15.2293C5.70825 15.6647 5.8745 16.4168 6.49992 16.4168C7.12534 16.4168 7.29159 15.6647 7.4895 15.2293C7.78242 14.5881 8.04367 14.0339 8.41575 13.4402C9.17575 12.2289 10.1653 11.1839 10.9174 9.95683C11.6458 8.79308 12.0416 7.50266 12.0416 6.12516C12.0416 3.06141 9.56367 0.583496 6.49992 0.583496ZM6.49992 8.30225C5.40742 8.30225 4.52075 7.41558 4.52075 6.32308C4.52075 5.23058 5.40742 4.34391 6.49992 4.34391C7.59242 4.34391 8.47909 5.23058 8.47909 6.32308C8.47909 7.41558 7.59242 8.30225 6.49992 8.30225Z" fill="#B7B5BD"/>
</svg>
